<?xml version="1.0" encoding="utf-8"?>
<!-- Generator: Adobe Illustrator 16.0.0, SVG Export Plug-In . SVG Version: 6.00 Build 0)  -->
<!DOCTYPE svg PUBLIC "-//W3C//DTD SVG 1.1//EN" "http://www.w3.org/Graphics/SVG/1.1/DTD/svg11.dtd">
<svg version="1.1" id="Ebene_1" xmlns="http://www.w3.org/2000/svg" xmlns:xlink="http://www.w3.org/1999/xlink" x="0px" y="0px"
	 width="370.309px" height="56.28px" viewBox="0 0 370.309 56.28" enable-background="new 0 0 370.309 56.28" xml:space="preserve">
<g>
	<path fill="#b5bbbd" d="M82.279,26.245H70.519v11.406h-3.489V11.862h17.057v2.746H70.519v8.891h11.761V26.245z"/>
	<path fill="#b5bbbd" d="M95.085,38.024c-2.669,0-4.792-0.889-6.368-2.666c-1.577-1.777-2.365-4.084-2.365-6.917v-0.779
		c0-2.728,0.812-4.997,2.436-6.811c1.624-1.813,3.545-2.719,5.766-2.719c2.586,0,4.54,0.779,5.863,2.338
		c1.322,1.559,1.983,3.638,1.983,6.235v2.178H89.966l-0.053,0.089c0.035,1.837,0.501,3.347,1.399,4.53s2.155,1.775,3.773,1.775
		c1.181,0,2.217-0.168,3.108-0.504c0.892-0.338,1.662-0.801,2.312-1.391l1.364,2.27c-0.685,0.678-1.588,1.242-2.71,1.693
		C98.037,37.798,96.68,38.024,95.085,38.024z M94.554,20.878c-1.169,0-2.167,0.492-2.994,1.475s-1.334,2.215-1.523,3.697
		l0.036,0.089h8.838V25.68c0-1.365-0.366-2.507-1.098-3.425C97.081,21.337,95.995,20.878,94.554,20.878z"/>
	<path fill="#b5bbbd" d="M118.483,34.817c-0.602,1.027-1.375,1.818-2.32,2.373c-0.945,0.557-2.037,0.834-3.277,0.834
		c-2.09,0-3.719-0.668-4.889-2.002c-1.169-1.334-1.753-3.412-1.753-6.234V18.487h3.489v11.336c0,2.043,0.301,3.447,0.903,4.215
		c0.603,0.768,1.541,1.152,2.816,1.152c1.24,0,2.264-0.252,3.073-0.754c0.809-0.502,1.42-1.213,1.833-2.135V18.487h3.49v19.164
		h-3.135L118.483,34.817z"/>
	<path fill="#b5bbbd" d="M134.885,38.024c-2.669,0-4.792-0.889-6.368-2.666c-1.577-1.777-2.365-4.084-2.365-6.917v-0.779
		c0-2.728,0.812-4.997,2.436-6.811c1.624-1.813,3.545-2.719,5.766-2.719c2.586,0,4.54,0.779,5.863,2.338
		c1.322,1.559,1.983,3.638,1.983,6.235v2.178h-12.434l-0.053,0.089c0.035,1.837,0.501,3.347,1.399,4.53s2.155,1.775,3.773,1.775
		c1.181,0,2.217-0.168,3.108-0.504c0.892-0.338,1.662-0.801,2.312-1.391l1.364,2.27c-0.685,0.678-1.588,1.242-2.71,1.693
		C137.837,37.798,136.479,38.024,134.885,38.024z M134.354,20.878c-1.169,0-2.167,0.492-2.994,1.475s-1.334,2.215-1.523,3.697
		l0.036,0.089h8.838V25.68c0-1.365-0.366-2.507-1.098-3.425C136.88,21.337,135.794,20.878,134.354,20.878z"/>
	<path fill="#b5bbbd" d="M155.184,21.569l-1.789-0.106c-0.921,0-1.697,0.218-2.329,0.655s-1.119,1.051-1.461,1.842v13.691h-3.49
		V18.487h3.118l0.336,2.799c0.543-0.992,1.213-1.766,2.01-2.32c0.797-0.556,1.715-0.833,2.754-0.833c0.26,0,0.507,0.021,0.744,0.062
		c0.236,0.042,0.431,0.086,0.584,0.133L155.184,21.569z"/>
	<path fill="#b5bbbd" d="M163.757,30.673l0.407,2.32h0.106l0.496-2.32l3.825-12.186h2.799l3.844,12.186l0.549,2.586h0.106
		l0.514-2.586l3.011-12.186h3.472l-5.562,19.164h-2.816l-3.701-11.672l-0.798-3.26l-0.106,0.018l-0.761,3.242l-3.649,11.672h-2.816
		l-5.562-19.164h3.472L163.757,30.673z"/>
	<path fill="#b5bbbd" d="M194.257,38.024c-2.668,0-4.791-0.889-6.367-2.666s-2.364-4.084-2.364-6.917v-0.779
		c0-2.728,0.812-4.997,2.436-6.811c1.623-1.813,3.545-2.719,5.765-2.719c2.586,0,4.54,0.779,5.863,2.338
		c1.322,1.559,1.983,3.638,1.983,6.235v2.178h-12.434l-0.054,0.089c0.036,1.837,0.502,3.347,1.399,4.53s2.155,1.775,3.772,1.775
		c1.181,0,2.217-0.168,3.109-0.504c0.891-0.338,1.661-0.801,2.312-1.391l1.363,2.27c-0.685,0.678-1.588,1.242-2.71,1.693
		S195.852,38.024,194.257,38.024z M193.726,20.878c-1.169,0-2.167,0.492-2.993,1.475s-1.334,2.215-1.523,3.697l0.036,0.089h8.838
		V25.68c0-1.365-0.366-2.507-1.098-3.425C196.253,21.337,195.166,20.878,193.726,20.878z"/>
	<path fill="#b5bbbd" d="M208.977,21.056c0.661-0.922,1.473-1.639,2.436-2.152c0.962-0.514,2.027-0.771,3.197-0.771
		c2.042,0,3.634,0.614,4.773,1.842c1.139,1.229,1.709,3.118,1.709,5.668v12.009h-3.489V25.607c0-1.582-0.34-2.751-1.019-3.507
		c-0.68-0.756-1.691-1.134-3.038-1.134c-0.968,0-1.845,0.228-2.63,0.682c-0.785,0.455-1.432,1.071-1.939,1.851v14.152h-3.489V10.021
		h3.489V21.056z"/>
	<path fill="#b5bbbd" d="M235.173,21.569l-1.789-0.106c-0.921,0-1.697,0.218-2.329,0.655s-1.119,1.051-1.461,1.842v13.691h-3.489
		V18.487h3.117l0.336,2.799c0.544-0.992,1.214-1.766,2.011-2.32c0.797-0.556,1.715-0.833,2.754-0.833
		c0.26,0,0.508,0.021,0.744,0.062c0.236,0.042,0.432,0.086,0.585,0.133L235.173,21.569z"/>
	<path fill="#b5bbbd" d="M252.673,11.862l8.219,20.953h0.106l8.219-20.953h4.464v25.789h-3.49V27.45l0.354-10.486l-0.088-0.018
		l-8.36,20.705h-2.32l-8.325-20.652l-0.089,0.018l0.337,10.434v10.201h-3.489V11.862H252.673z"/>
	<path fill="#b5bbbd" d="M291.197,37.651c-0.118-0.578-0.21-1.088-0.274-1.531c-0.065-0.443-0.104-0.889-0.115-1.338
		c-0.649,0.922-1.497,1.691-2.542,2.313c-1.045,0.619-2.169,0.93-3.374,0.93c-1.995,0-3.516-0.512-4.561-1.533
		s-1.567-2.43-1.567-4.225c0-1.83,0.74-3.262,2.223-4.295c1.481-1.033,3.492-1.549,6.031-1.549h3.79v-1.896
		c0-1.121-0.343-2.01-1.027-2.665s-1.653-0.983-2.904-0.983c-1.122,0-2.034,0.287-2.737,0.859c-0.702,0.572-1.054,1.261-1.054,2.063
		h-3.33l-0.035-0.106c-0.071-1.393,0.587-2.668,1.975-3.826c1.388-1.156,3.18-1.735,5.376-1.735c2.173,0,3.92,0.552,5.243,1.656
		c1.322,1.104,1.983,2.695,1.983,4.773v9.228c0,0.686,0.035,1.346,0.106,1.984c0.071,0.637,0.2,1.264,0.39,1.877H291.197z
		 M285.405,35.083c1.264,0,2.403-0.324,3.419-0.971c1.015-0.648,1.677-1.389,1.983-2.227v-3.107h-3.914
		c-1.405,0-2.53,0.354-3.374,1.059c-0.845,0.707-1.267,1.537-1.267,2.492c0,0.848,0.266,1.518,0.797,2.014
		C283.581,34.837,284.366,35.083,285.405,35.083z"/>
	<path fill="#b5bbbd" d="M311.531,34.817c-0.603,1.027-1.376,1.818-2.32,2.373c-0.944,0.557-2.037,0.834-3.276,0.834
		c-2.091,0-3.72-0.668-4.889-2.002s-1.754-3.412-1.754-6.234V18.487h3.489v11.336c0,2.043,0.302,3.447,0.903,4.215
		c0.603,0.768,1.541,1.152,2.816,1.152c1.24,0,2.265-0.252,3.073-0.754s1.42-1.213,1.833-2.135V18.487h3.489v19.164h-3.135
		L311.531,34.817z"/>
	<path fill="#b5bbbd" d="M327.933,38.024c-2.668,0-4.791-0.889-6.367-2.666s-2.364-4.084-2.364-6.917v-0.779
		c0-2.728,0.812-4.997,2.436-6.811c1.623-1.813,3.545-2.719,5.765-2.719c2.586,0,4.54,0.779,5.863,2.338
		c1.322,1.559,1.983,3.638,1.983,6.235v2.178h-12.434l-0.054,0.089c0.036,1.837,0.502,3.347,1.399,4.53s2.155,1.775,3.772,1.775
		c1.181,0,2.217-0.168,3.109-0.504c0.891-0.338,1.661-0.801,2.312-1.391l1.363,2.27c-0.685,0.678-1.588,1.242-2.71,1.693
		S329.527,38.024,327.933,38.024z M327.401,20.878c-1.169,0-2.167,0.492-2.993,1.475s-1.334,2.215-1.523,3.697l0.036,0.089h8.838
		V25.68c0-1.365-0.366-2.507-1.098-3.425C329.929,21.337,328.842,20.878,327.401,20.878z"/>
	<path fill="#b5bbbd" d="M348.231,21.569l-1.789-0.106c-0.921,0-1.697,0.218-2.329,0.655s-1.119,1.051-1.461,1.842v13.691h-3.489
		V18.487h3.117l0.336,2.799c0.544-0.992,1.214-1.766,2.011-2.32c0.797-0.556,1.715-0.833,2.754-0.833
		c0.26,0,0.508,0.021,0.744,0.062c0.236,0.042,0.432,0.086,0.585,0.133L348.231,21.569z"/>
	<path fill="#b5bbbd" d="M354.715,18.487l0.248,2.852c0.638-1.016,1.438-1.804,2.399-2.365c0.963-0.561,2.058-0.841,3.286-0.841
		c2.066,0,3.666,0.604,4.8,1.815s1.7,3.079,1.7,5.605v12.098h-3.489V25.625c0-1.688-0.333-2.888-1-3.596
		c-0.668-0.708-1.687-1.063-3.056-1.063c-1.004,0-1.893,0.242-2.666,0.726c-0.773,0.484-1.391,1.146-1.851,1.984v13.975h-3.489
		V18.487H354.715z"/>
</g>
<path fill="#C00D0D" d="M47.092,32.734c0,13.004-10.542,23.546-23.546,23.546S0,45.738,0,32.734V0h47.092V32.734z"/>
<path fill="#FFFFFF" d="M42.487,4.521v29.017c0,5.025-2.031,9.771-5.717,13.364c-1.782,1.737-3.848,3.102-6.141,4.058
	c-2.367,0.986-4.863,1.486-7.42,1.486c-5.061,0-9.833-1.967-13.44-5.54c-3.614-3.579-5.604-8.327-5.604-13.368V4.521H42.487
	 M43.13,3.879H3.521v29.659c0,10.799,8.889,19.552,19.688,19.552c10.797,0,19.921-8.753,19.921-19.552V3.879L43.13,3.879z"/>
<g>
	<path fill="#FFFFFF" d="M11.676,40.001l1.138,1.271l-1.964,3.488l0.01,0.012l3.637-1.619l1.138,1.271l-4.106,3.675l-0.757-0.846
		l2.911-2.604l-0.01-0.012L9.86,46.235l-0.623-0.696l1.98-3.585l-0.01-0.012l-2.881,2.579l-0.757-0.846L11.676,40.001z"/>
	<path fill="#FFFFFF" d="M16.896,44.826l1.113,0.555l-0.613,5.853l-1.126-0.562l0.174-1.284l-1.845-0.919l-0.934,0.905l-1.099-0.547
		L16.896,44.826z M15.285,47.801l1.278,0.637l0.28-2.119l-0.014-0.008L15.285,47.801z"/>
	<path fill="#FFFFFF" d="M23.416,49.998c-0.179,1.479-1.14,2.094-2.604,1.916c-1.471-0.178-2.243-0.994-2.063-2.48l0.412-3.402
		l1.203,0.146l-0.412,3.402c-0.072,0.598,0.01,1.206,0.983,1.324c0.858,0.104,1.179-0.238,1.278-1.051l0.412-3.402l1.203,0.146
		L23.416,49.998z"/>
	<path fill="#FFFFFF" d="M23.693,46.539l4.033-0.849l0.209,0.997l-2.847,0.599l0.243,1.155l2.613-0.549l0.194,0.921l-2.613,0.55
		l0.278,1.321l2.908-0.611l0.209,0.997l-4.093,0.86L23.693,46.539z"/>
	<path fill="#FFFFFF" d="M27.484,45.796l2.57-1.492c0.854-0.495,1.74-0.215,2.159,0.506c0.325,0.562,0.342,1.113-0.061,1.633
		l0.008,0.014c0.591-0.165,1.029,0.251,1.341,0.712c0.194,0.289,0.513,0.854,0.855,1.013l-1.048,0.607
		c-0.301-0.227-0.555-0.694-0.829-1.045c-0.364-0.458-0.686-0.565-1.213-0.26l-1.048,0.608l1.081,1.862l-1.048,0.609L27.484,45.796z
		 M29.783,47.344l1.148-0.666c0.467-0.271,0.605-0.619,0.326-1.1c-0.268-0.46-0.637-0.514-1.105-0.242l-1.148,0.666L29.783,47.344z"
		/>
	<path fill="#FFFFFF" d="M31.291,43.629l0.782-0.915l4.305,0.654l0.01-0.012l-2.81-2.402l0.737-0.862l4.188,3.58l-0.787,0.922
		l-4.294-0.655l-0.01,0.012l2.805,2.397l-0.737,0.862L31.291,43.629z"/>
</g>
<path fill="none" stroke="#000000" d="M23.209,13.987"/>
<g>
	<path fill="#9D9D9C" d="M13.477,35.139h2.412v-4.021h4.824v4.021h4.824v-4.021h4.824v4.021h2.573c0,0-1.126,8.684-9.809,8.684
		S13.477,35.139,13.477,35.139z"/>
	<path d="M23.125,43.982c-4.56,0-6.985-2.402-8.217-4.418c-1.33-2.177-1.581-4.317-1.59-4.408l-0.02-0.179h2.431v-4.02h5.146v4.02
		h4.502v-4.02h5.146v4.02h2.595l-0.023,0.182c-0.012,0.09-0.302,2.23-1.672,4.407C30.153,41.581,27.684,43.982,23.125,43.982z
		 M13.662,35.3c0.09,0.559,0.446,2.344,1.525,4.106c1.73,2.823,4.4,4.255,7.937,4.255c3.538,0,6.236-1.433,8.019-4.257
		c1.111-1.76,1.5-3.542,1.601-4.104H30.2v-4.021h-4.502V35.3h-5.146v-4.021h-4.502V35.3H13.662z"/>
</g>
<g>
	<polygon fill="#9A9969" points="14.609,25.652 23.124,21.08 31.323,25.652 23.124,30.383 	"/>
	<path d="M23.123,21.172l8.038,4.481l-8.038,4.637l-8.346-4.637L23.123,21.172 M23.125,20.988l-8.683,4.663l8.683,4.824l8.362-4.824
		L23.125,20.988L23.125,20.988z"/>
</g>
<path d="M33.911,20.023l-1.615,16.153c-0.035,0.191-0.394,2.004-1.635,3.781c-1.717,2.457-4.252,3.703-7.537,3.703
	c-3.036,0-5.497-1.252-7.314-3.721c-1.28-1.739-1.786-3.512-1.86-3.789l-1.613-16.128H33.911 M34.622,19.38H11.627l1.688,16.885
	c0,0,1.93,8.039,9.809,8.039c8.502,0,9.809-8.039,9.809-8.039L34.622,19.38L34.622,19.38z"/>
<g>
	<path fill="#FFFFFF" d="M5.981,5.551h3.08v0.911H7.093v1.297h1.853v0.91H7.093v2.394H5.981V5.551z"/>
	<path fill="#FFFFFF" d="M9.215,5.551h2.053c0.911,0,1.467,0.479,1.467,1.421c0,0.732-0.293,1.227-0.919,1.358v0.015
		c0.757,0.101,0.873,0.518,0.888,1.684c0.008,0.578,0.039,0.88,0.247,0.987v0.047h-1.204c-0.108-0.154-0.131-0.363-0.139-0.579
		l-0.031-1.058c-0.016-0.433-0.209-0.694-0.656-0.694h-0.595v2.331H9.215V5.551z M10.327,7.959h0.463
		c0.532,0,0.833-0.231,0.833-0.826c0-0.509-0.27-0.764-0.772-0.764h-0.525V7.959z"/>
	<path fill="#FFFFFF" d="M16.247,5.551v0.911h-1.968v1.297h1.853v0.91h-1.853v1.482h2.045v0.911h-3.157V5.551H16.247z"/>
	<path fill="#FFFFFF" d="M16.594,11.063V5.551h1.111v5.512H16.594z"/>
	<path fill="#FFFFFF" d="M17.868,5.551h1.065l0.609,4.076h0.016l0.648-4.076h1.065l0.648,4.076h0.016l0.61-4.076h1.065l-1.003,5.512
		h-1.243l-0.617-3.999h-0.016l-0.618,3.999h-1.243L17.868,5.551z"/>
	<path fill="#FFFFFF" d="M23.772,11.063V5.551h1.111v5.512H23.772z"/>
	<path fill="#FFFFFF" d="M25.37,11.063V5.551h1.112v4.601h1.968v0.911H25.37z"/>
	<path fill="#FFFFFF" d="M28.604,11.063V5.551h1.112v4.601h1.968v0.911H28.604z"/>
	<path fill="#FFFFFF" d="M31.892,11.063V5.551h1.111v5.512H31.892z"/>
	<path fill="#FFFFFF" d="M35.937,7.188c0-0.409-0.186-0.927-0.633-0.927c-0.541,0-0.757,0.556-0.757,1.93
		c0,1.328,0.124,2.161,0.764,2.161c0.263,0,0.688-0.285,0.688-0.879V8.908h-0.733V8.09h1.798v2.973h-0.818v-0.51H36.23
		c-0.263,0.433-0.641,0.617-1.158,0.617c-1.366,0-1.636-1.019-1.636-2.925c0-1.853,0.432-2.803,1.853-2.803
		c1.22,0,1.714,0.626,1.714,1.745H35.937z"/>
	<path fill="#FFFFFF" d="M40.521,5.551v0.911h-1.968v1.297h1.853v0.91h-1.853v1.482h2.046v0.911h-3.157V5.551H40.521z"/>
	<path fill="#FFFFFF" d="M5.981,12.144h3.08v0.911H7.093v1.297h1.853v0.91H7.093v2.394H5.981V12.144z"/>
	<path fill="#FFFFFF" d="M12.365,12.144v0.911h-1.968v1.297h1.853v0.91h-1.853v1.482h2.045v0.911H9.285v-5.512H12.365z"/>
	<path fill="#FFFFFF" d="M13.769,12.144v3.844c0,0.549,0.131,0.958,0.648,0.958s0.648-0.409,0.648-0.958v-3.844h1.112v3.844
		c0,1.405-0.857,1.775-1.76,1.775s-1.76-0.301-1.76-1.775v-3.844H13.769z"/>
	<path fill="#FFFFFF" d="M19.689,12.144v0.911h-1.969v1.297h1.853v0.91h-1.853v1.482h2.046v0.911h-3.157v-5.512H19.689z"/>
	<path fill="#FFFFFF" d="M20.052,12.144h2.053c0.911,0,1.467,0.479,1.467,1.42c0,0.734-0.293,1.228-0.918,1.359v0.016
		c0.756,0.1,0.872,0.517,0.888,1.682c0.008,0.58,0.039,0.881,0.247,0.988v0.047h-1.205c-0.108-0.154-0.131-0.363-0.139-0.579
		l-0.031-1.058c-0.016-0.432-0.208-0.694-0.656-0.694h-0.594v2.331h-1.112V12.144z M21.164,14.552h0.463
		c0.533,0,0.834-0.231,0.834-0.825c0-0.51-0.271-0.765-0.772-0.765h-0.525V14.552z"/>
	<path fill="#FFFFFF" d="M23.826,12.144h1.065l0.61,4.076h0.015l0.648-4.076h1.065l0.648,4.076h0.016l0.609-4.076h1.065
		l-1.003,5.512h-1.243l-0.618-3.999h-0.016l-0.617,3.999H24.83L23.826,12.144z"/>
	<path fill="#FFFFFF" d="M32.826,12.144v0.911h-1.968v1.297h1.853v0.91h-1.853v1.482h2.045v0.911h-3.157v-5.512H32.826z"/>
	<path fill="#FFFFFF" d="M33.188,12.144H34.3v2.107h1.297v-2.107h1.111v5.512h-1.111v-2.447H34.3v2.447h-1.112V12.144z"/>
	<path fill="#FFFFFF" d="M37.209,12.144h2.053c0.911,0,1.466,0.479,1.466,1.42c0,0.734-0.293,1.228-0.918,1.359v0.016
		c0.756,0.1,0.873,0.517,0.888,1.682c0.008,0.58,0.039,0.881,0.247,0.988v0.047h-1.204c-0.108-0.154-0.131-0.363-0.139-0.579
		l-0.031-1.058c-0.016-0.432-0.208-0.694-0.656-0.694h-0.594v2.331h-1.111V12.144z M38.321,14.552h0.463
		c0.532,0,0.833-0.231,0.833-0.825c0-0.51-0.27-0.765-0.772-0.765h-0.525V14.552z"/>
</g>
</svg>
